<svg width="30" height="34" viewBox="0 0 30 34" fill="none" xmlns="http://www.w3.org/2000/svg">
<path d="M24.4514 4.29321C24.3199 4.29354 24.1907 4.25857 24.0773 4.19196C20.9569 2.52133 18.259 1.81258 15.0246 1.81258C11.8064 1.81258 8.7506 2.60571 5.97115 4.19196C5.5781 4.41415 5.09365 4.25946 4.86584 3.85165C4.76415 3.65481 4.74122 3.42665 4.80168 3.21352C4.86215 3.00038 5.00149 2.81826 5.19139 2.70415C8.18907 1.00397 11.5783 0.11503 15.0246 0.125084C18.4861 0.125084 21.5095 0.918209 24.8254 2.69008C25.0189 2.79646 25.163 2.97442 25.2267 3.18579C25.2905 3.39716 25.2688 3.62511 25.1665 3.82071C25.1049 3.95958 25.0048 4.0779 24.8781 4.16165C24.7514 4.24539 24.6033 4.29105 24.4514 4.29321ZM1.19271 13.1526C1.02384 13.1514 0.8594 13.0984 0.721621 13.0007C0.542365 12.8675 0.421809 12.6699 0.385348 12.4496C0.348886 12.2292 0.399366 12.0033 0.526152 11.8195C2.13561 9.45696 4.1824 7.60071 6.62154 6.30133C11.7248 3.5704 18.259 3.55071 23.3784 6.28446C25.8169 7.58383 27.8644 9.42321 29.4738 11.7688C29.6001 11.9529 29.6502 12.1786 29.6138 12.3988C29.5774 12.619 29.4572 12.8165 29.2783 12.9501C29.1916 13.0149 29.0924 13.0613 28.987 13.0863C28.8817 13.1113 28.7723 13.1144 28.6656 13.0954C28.559 13.0764 28.4574 13.0357 28.3671 12.9759C28.2768 12.9161 28.1997 12.8384 28.1407 12.7476C26.6782 10.6213 24.8254 8.95071 22.631 7.78633C17.9665 5.30571 12.0012 5.30571 7.35279 7.80321C5.14217 8.98446 3.28943 10.672 1.82693 12.7954C1.76387 12.9071 1.67144 12.9995 1.55964 13.0624C1.44785 13.1254 1.32096 13.1566 1.19271 13.1526ZM11.3508 33.5235C11.2433 33.5246 11.137 33.5025 11.0388 33.4588C10.9407 33.4151 10.8531 33.3509 10.7819 33.2704C9.36795 31.7995 8.60154 30.8516 7.51521 28.8126C6.39021 26.737 5.80873 24.2057 5.80873 21.4888C5.80873 16.477 9.93678 12.3932 15.0084 12.3932C20.0801 12.3932 24.2109 16.477 24.2109 21.4888C24.2141 21.5975 24.1955 21.7058 24.1561 21.8071C24.1167 21.9085 24.0574 22.0009 23.9816 22.079C23.9058 22.157 23.8152 22.219 23.715 22.2614C23.6149 22.3037 23.5072 22.3256 23.3985 22.3256C23.2897 22.3256 23.1821 22.3037 23.0819 22.2614C22.9817 22.219 22.8911 22.157 22.8153 22.079C22.7396 22.0009 22.6802 21.9085 22.6408 21.8071C22.6014 21.7058 22.5828 21.5975 22.586 21.4888C22.586 17.4051 19.1885 14.0807 15.0119 14.0807C10.8354 14.0807 7.43435 17.4051 7.43435 21.4888C7.43435 23.9188 7.95396 26.1632 8.94537 27.9857C9.986 29.9263 10.7032 30.7532 11.9526 32.0695C12.1008 32.2332 12.1829 32.4462 12.1829 32.6671C12.1829 32.888 12.1008 33.101 11.9526 33.2648C11.7931 33.4257 11.5773 33.5185 11.3508 33.5235ZM23.0051 30.4016C21.0708 30.4016 19.3643 29.8954 17.9665 28.8998C16.7756 28.065 15.8027 26.9564 15.1297 25.6672C14.4567 24.378 14.1033 22.9459 14.0993 21.4916C14.0947 21.3821 14.1124 21.2727 14.1512 21.1701C14.1899 21.0675 14.2491 20.9738 14.325 20.8947C14.4009 20.8155 14.4921 20.7525 14.593 20.7095C14.6939 20.6665 14.8024 20.6443 14.9121 20.6443C15.0218 20.6443 15.1303 20.6665 15.2312 20.7095C15.3321 20.7525 15.4232 20.8155 15.4992 20.8947C15.5751 20.9738 15.6342 21.0675 15.673 21.1701C15.7118 21.2727 15.7295 21.3821 15.7249 21.4916C15.7276 22.6729 16.0157 23.836 16.5647 24.882C17.1136 25.928 17.9071 26.8258 18.8777 27.4991C20.0315 28.3091 21.3808 28.6945 23.0065 28.6945C23.5726 28.6844 24.137 28.628 24.694 28.5257C25.1327 28.4413 25.5553 28.7451 25.6361 29.2176C25.6773 29.4356 25.6304 29.6611 25.5056 29.8446C25.3807 30.0281 25.1882 30.1546 24.9703 30.1963C24.3229 30.3243 23.665 30.392 23.0051 30.3988V30.4016ZM19.7376 33.8751C19.6662 33.8721 19.5954 33.8608 19.5267 33.8413C16.942 33.0988 15.2517 32.1032 13.4798 30.2976C11.2038 27.952 9.95295 24.8301 9.95295 21.4888C9.95295 18.7551 12.1959 16.5276 14.9585 16.5276C17.7211 16.5276 19.9647 18.7551 19.9647 21.4888C19.9647 23.2945 21.4765 24.7626 23.3454 24.7626C25.2143 24.7626 26.726 23.2945 26.726 21.4888C26.726 15.127 21.4434 9.96321 14.9423 9.96321C10.3263 9.96321 6.10053 12.6295 4.19928 16.7638C3.56646 18.1307 3.24021 19.7338 3.24021 21.4888C3.24021 22.8051 3.35342 24.8807 4.32865 27.5807C4.49178 28.0195 4.28014 28.5088 3.85756 28.6607C3.75713 28.699 3.65001 28.7165 3.54263 28.7123C3.43525 28.7081 3.32982 28.6822 3.23269 28.6363C3.13556 28.5903 3.04872 28.5252 2.9774 28.4448C2.90607 28.3644 2.85173 28.2704 2.81764 28.1685C2.03342 26.0288 1.63167 23.7678 1.63076 21.4888C1.63076 19.4638 2.00482 17.6216 2.73607 16.0213C4.89818 11.3104 9.69279 8.25883 14.9423 8.25883C22.3378 8.25883 28.3516 14.182 28.3516 21.472C28.3516 24.2057 26.1087 26.4332 23.3454 26.4332C20.5821 26.4332 18.3391 24.2057 18.3391 21.472C18.3398 19.6663 16.8281 18.1954 14.9592 18.1954C13.0903 18.1954 11.5786 19.6635 11.5786 21.4691C11.5786 24.352 12.6515 27.0548 14.6182 29.0798C16.1651 30.666 17.6416 31.5407 19.9331 32.2016C20.3719 32.3198 20.6158 32.7923 20.5019 33.231C20.4664 33.4091 20.3715 33.5699 20.2326 33.6869C20.0937 33.8039 19.9192 33.8703 19.7376 33.8751Z" fill="#19807D"/>
</svg>
