<svg width="20" height="20" viewBox="0 0 20 20" fill="none" xmlns="http://www.w3.org/2000/svg">
<path d="M10 6.71434C10.341 6.71434 10.668 6.57888 10.9092 6.33777C11.1503 6.09665 11.2857 5.76962 11.2857 5.42863C11.2857 5.08764 11.1503 4.76061 10.9092 4.51949C10.668 4.27837 10.341 4.14291 10 4.14291C9.65903 4.14291 9.332 4.27837 9.09089 4.51949C8.84977 4.76061 8.71431 5.08764 8.71431 5.42863C8.71431 5.76962 8.84977 6.09665 9.09089 6.33777C9.332 6.57888 9.65903 6.71434 10 6.71434ZM10.7629 0.967201C10.5419 0.804308 10.2746 0.716431 10 0.716431C9.72548 0.716431 9.45816 0.804308 9.23716 0.967201L1.09431 6.97149C0.0965931 7.70777 0.616879 9.29177 1.85716 9.29177H2.28574V15.4992C1.77794 15.7108 1.34415 16.068 1.03907 16.5257C0.733994 16.9835 0.571281 17.5214 0.57145 18.0715V19.3572C0.57145 19.7121 0.85945 20.0001 1.21431 20.0001H18.7857C18.9562 20.0001 19.1197 19.9323 19.2403 19.8118C19.3609 19.6912 19.4286 19.5277 19.4286 19.3572V18.0715C19.4286 17.5215 19.2658 16.9839 18.9607 16.5262C18.6557 16.0686 18.222 15.7116 17.7143 15.5001V9.29177H18.142C19.3832 9.29177 19.9035 7.70777 18.9049 6.97149L10.7629 0.967201ZM3.57145 15.2858V9.29177H5.71431V15.2858H3.57145ZM16.4286 9.29177V15.2858H14.2857V9.29177H16.4286ZM13 9.29177V15.2858H10.6429V9.29177H13ZM9.35717 9.29177V15.2858H7.00002V9.29177H9.35717ZM1.85716 8.00606L10 2.00177L18.142 8.00606H1.85716ZM1.85716 18.0715C1.85716 17.2435 2.52916 16.5715 3.35716 16.5715H16.6429C17.4709 16.5715 18.1429 17.2435 18.1429 18.0715V18.7143H1.85716V18.0715Z" fill="white"/>
</svg>
