<svg width="19" height="18" viewBox="0 0 19 18" fill="none" xmlns="http://www.w3.org/2000/svg">
<path d="M12.5 10.75C12.5 10.5511 12.579 10.3603 12.7197 10.2197C12.8603 10.079 13.0511 10 13.25 10H15.25C15.4489 10 15.6397 10.079 15.7803 10.2197C15.921 10.3603 16 10.5511 16 10.75C16 10.9489 15.921 11.1397 15.7803 11.2803C15.6397 11.421 15.4489 11.5 15.25 11.5H13.25C13.0511 11.5 12.8603 11.421 12.7197 11.2803C12.579 11.1397 12.5 10.9489 12.5 10.75ZM0 2H0.0139999C0.075493 1.44999 0.33754 0.941936 0.750043 0.572972C1.16255 0.204007 1.69656 1.67206e-05 2.25 0H13.75C14.0455 0 14.3381 0.058198 14.611 0.171271C14.884 0.284344 15.1321 0.450078 15.341 0.65901C15.5499 0.867941 15.7157 1.11598 15.8287 1.38896C15.9418 1.66194 16 1.95453 16 2.25V3.087C16.7118 3.25601 17.3458 3.66019 17.7995 4.23417C18.2532 4.80815 18.5 5.51838 18.5 6.25V14.75C18.5 15.612 18.1576 16.4386 17.5481 17.0481C16.9386 17.6576 16.112 18 15.25 18H3.25C2.38805 18 1.5614 17.6576 0.951903 17.0481C0.34241 16.4386 0 15.612 0 14.75V2ZM15.25 4.5H1.5V14.75C1.5 15.716 2.284 16.5 3.25 16.5H15.25C15.7141 16.5 16.1592 16.3156 16.4874 15.9874C16.8156 15.6592 17 15.2141 17 14.75V6.25C17 5.78587 16.8156 5.34075 16.4874 5.01256C16.1592 4.68437 15.7141 4.5 15.25 4.5ZM14.5 3V2.25C14.5 2.05109 14.421 1.86032 14.2803 1.71967C14.1397 1.57902 13.9489 1.5 13.75 1.5H2.25C2.05109 1.5 1.86032 1.57902 1.71967 1.71967C1.57902 1.86032 1.5 2.05109 1.5 2.25C1.5 2.44891 1.57902 2.63968 1.71967 2.78033C1.86032 2.92098 2.05109 3 2.25 3H14.5Z" fill="#C4C4C4"/>
</svg>
